#!OML:ASF H:\LiuWeirdWalks\Patient Classification 1\Patient 1\Session 1\male.ASF
:FULLY-SPECIFIED
:DEGREES
449
root 1.22561 16.9453 8.24282 5.5105 10.0122 4.43871
lowerback 5.89901 -3.33539 -6.67655
upperback -2.71114 -4.8384 3.51098
thorax -5.30361 -2.09408 7.94438
lowerneck -25.0979 4.66062 9.75456
upperneck 12.3746 4.65862 -8.94137
head 8.3593 1.7377 -3.9697
rclavicle -9.34288e-015 4.77083e-015
rhumerus -33.3344 -4.5843 -78.8027
rradius 27.8195
rwrist -6.94766
rhand -18.2821 -0.568626
rfingers 7.12502
rthumb 7.99807 -30.3973
lclavicle -9.34288e-015 4.77083e-015
lhumerus -35.5083 -7.03447 91.6693
lradius 39.0736
lwrist 1.71452
lhand -13.2773 -7.82534
lfingers 7.12502
lthumb 12.8259 21.7606
rfemur -41.4463 -4.86118 15.4828
rtibia 57.9351
rfoot -11.8174 -20.1954
rtoes -5.14131
lfemur 21.5281 -1.21218 -21.2232
ltibia 13.651
lfoot -6.66921 12.5539
ltoes -30.0118
450
root 1.20381 17.0229 8.46687 5.51043 10.2705 4.13339
lowerback 5.79233 -3.43299 -6.27008
upperback -2.89902 -4.92564 3.61721
thorax -5.44817 -2.13746 7.83515
lowerneck -25.0419 4.74492 9.83524
upperneck 12.3204 4.77322 -9.07333
head 8.34963 1.78306 -4.01125
rclavicle 4.27387e-015 -2.38542e-014
rhumerus -33.7344 -4.21666 -78.9371
rradius 27.7596
rwrist -7.27584
rhand -18.8825 -1.01829
rfingers 7.12502
rthumb 7.41861 -30.8682
lclavicle 4.27387e-015 -2.38542e-014
lhumerus -36.4364 -6.3755 91.6556
lradius 37.9489
lwrist 0.588128
lhand -13.074 -7.86388
lfingers 7.12502
lthumb 13.0219 21.7097
rfemur -40.1633 -5.18655 16.0496
rtibia 57.1478
rfoot -12.1276 -20.2644
rtoes -5.52848
lfemur 20.7134 -1.25478 -20.387
ltibia 15.6732
lfoot -4.55921 11.1576
ltoes -30.661
451
root 1.18179 17.1161 8.68784 5.54207 10.6017 3.94488
lowerback 5.66335 -3.52541 -5.98723
upperback -3.09203 -5.01755 3.68235
thorax -5.57959 -2.18055 7.75122
lowerneck -24.9971 4.79521 9.88696
upperneck 12.2892 4.84109 -9.1496
head 8.34248 1.81065 -4.03587
rclavicle -2.68359e-015 -2.38542e-014
rhumerus -34.197 -3.84548 -79.074
rradius 27.7156
rwrist -7.59417
rhand -19.4626 -1.43616
rfingers 7.12502
rthumb 6.8586 -31.3051
lclavicle -2.68359e-015 -2.38542e-014
lhumerus -37.2304 -5.73796 91.615
lradius 36.5809
lwrist -0.444172
lhand -12.914 -7.81739
lfingers 7.12502
lthumb 13.1761 21.7463
rfemur -38.7797 -5.63544 16.4857
rtibia 56.1322
rfoot -12.3066 -20.2411
rtoes -5.88851
lfemur 19.7074 -1.28845 -19.6273
ltibia 17.7309
lfoot -1.94774 9.50387
ltoes -30.819
452
root 1.16027 17.2242 8.90546 5.57351 11.023 3.83697
lowerback 5.52943 -3.61589 -5.77899
upperback -3.281 -5.11506 3.70931
thorax -5.70113 -2.22536 7.66867
lowerneck -24.9465 4.81 9.90575
upperneck 12.2751 4.86083 -9.1598
head 8.3323 1.82106 -4.03943
rclavicle 1.41137e-014 3.65764e-014
rhumerus -34.726 -3.50052 -79.2049
rradius 27.6975
rwrist -7.86205
rhand -19.9509 -1.81885
rfingers 7.12502
rthumb 6.38717 -31.7025
lclavicle 1.41137e-014 3.65764e-014
lhumerus -37.901 -5.11336 91.5258
lradius 35.0196
lwrist -1.5087
lhand -12.7209 -7.66789
lfingers 7.12502
lthumb 13.3622 21.8836
rfemur -37.2563 -6.19038 16.8157
rtibia 54.8795
rfoot -12.3414 -20.1329
rtoes -6.28508
lfemur 18.5465 -1.34457 -18.9234
ltibia 19.7879
lfoot 1.09487 7.62134
ltoes -30.2313
453
root 1.13961 17.3463 9.11912 5.57712 11.5271 3.76382
lowerback 5.40885 -3.70792 -5.59912
upperback -3.44577 -5.21912 3.70722
thorax -5.80437 -2.27483 7.57134
lowerneck -24.9402 4.78957 9.88573
upperneck 12.311 4.83143 -9.10129
head 8.33801 1.81253 -4.02055
rclavicle 1.78658e-014 -1.43125e-014
rhumerus -35.2819 -3.213 -79.3268
rradius 27.6946
rwrist -8.03083
rhand -20.2933 -2.08031
rfingers 7.12502
rthumb 6.05669 -31.9737
lclavicle 1.78658e-014 -1.43125e-014
lhumerus -38.4334 -4.52685 91.3818
lradius 33.3232
lwrist -2.46928
lhand -12.4404 -7.38669
lfingers 7.12502
lthumb 13.6326 22.1469
rfemur -35.5718 -6.80549 17.0776
rtibia 53.3843
rfoot -12.2145 -19.9575
rtoes -6.75541
lfemur 17.2727 -1.43585 -18.253
ltibia 21.8294
lfoot 4.8509 5.43023
ltoes -27.0471
